<svg version="1.1" id="Layer_1" xmlns="http://www.w3.org/2000/svg" xmlns:xlink="http://www.w3.org/1999/xlink" x="0px" y="0px"
	 width="100%" viewBox="0 0 1000 1000" enable-background="new 0 0 1000 1000" xml:space="preserve">
<path fill="#FEFEFE" opacity="1.000000" stroke="none" 
	d="
M465.000000,1001.000000 
	C310.000000,1001.000000 155.500000,1001.000000 1.000000,1001.000000 
	C1.000000,667.666687 1.000000,334.333344 1.000000,1.000000 
	C334.333344,1.000000 667.666687,1.000000 1001.000000,1.000000 
	C1001.000000,334.333344 1001.000000,667.666687 1001.000000,1001.000000 
	C822.500000,1001.000000 644.000000,1001.000000 465.000000,1001.000000 
M24.718880,864.196716 
	C25.151670,864.180542 25.584459,864.164307 26.485775,864.591675 
	C28.192692,863.600403 31.089491,862.881042 31.389553,861.568176 
	C32.401279,857.141724 32.720913,852.511841 32.867916,847.945618 
	C33.018456,843.269531 31.845936,838.426758 32.681854,833.922241 
	C34.481636,824.223816 28.917961,814.586243 32.872482,804.977905 
	C33.123497,804.368042 32.389278,803.414734 32.332176,802.605713 
	C32.017174,798.142700 31.464092,793.667114 31.577091,789.210632 
	C31.719219,783.605225 32.467392,778.017151 32.866055,772.415283 
	C33.013283,770.346497 33.043858,768.248901 32.875011,766.185181 
	C32.761772,764.801086 32.608414,762.642395 31.776386,762.227478 
	C27.826138,760.257996 23.700502,758.567993 19.494177,757.227661 
	C18.207581,756.817749 15.283584,756.825867 16.905046,760.897095 
	C17.021343,763.571960 17.137638,766.246887 16.736553,769.193298 
	C16.869175,769.807007 17.001795,770.420654 17.061474,771.719727 
	C17.777462,773.369446 18.493450,775.019165 19.070911,777.420898 
	C18.116594,779.387207 17.162275,781.353577 16.096258,784.008118 
	C16.789743,785.569946 17.483229,787.131836 17.906338,789.316650 
	C17.650011,790.556213 17.393684,791.795715 17.063049,793.730835 
	C18.108273,795.706848 19.153494,797.682922 19.787270,800.285034 
	C19.250233,801.781494 14.106951,800.012573 17.056667,804.718750 
	C17.774446,806.368469 18.492226,808.018188 19.073919,810.405762 
	C18.539618,812.297852 18.005318,814.190002 17.197891,816.833008 
	C17.484125,818.851013 17.770361,820.869080 17.772392,823.534851 
	C17.241308,824.783936 16.710224,826.032959 16.082479,827.988037 
	C16.496468,829.503174 16.910456,831.018372 17.172724,833.484314 
	C17.188890,834.763062 17.205059,836.041870 17.087486,838.053711 
	C17.391485,839.702881 17.695482,841.352112 17.929905,843.678223 
	C17.695700,845.132324 17.461494,846.586365 17.071074,848.825745 
	C17.149719,850.402344 17.228367,851.978882 17.278299,854.204956 
	C17.520460,854.809082 17.762621,855.413269 17.521618,856.524292 
	C17.325228,859.779419 18.806345,862.100220 22.381598,863.867859 
	C22.953476,863.895691 23.525356,863.923584 24.718880,864.196716 
M15.035016,886.850464 
	C16.345369,887.622253 17.655722,888.393982 19.029097,889.730835 
	C19.361460,890.155762 19.693823,890.580750 19.928928,891.834167 
	C19.986198,893.497742 20.043470,895.161255 20.066046,897.730042 
	C20.099119,899.237671 20.132193,900.745300 20.041697,903.032288 
	C20.163221,904.330627 20.284746,905.628906 19.756588,907.243896 
	C19.756165,909.315918 14.184232,908.351746 17.037766,912.679810 
	C17.066202,913.112854 17.094641,913.545898 16.515511,914.260071 
	C16.345839,915.507019 16.176167,916.753967 15.953134,918.827759 
	C16.844503,921.191284 17.735872,923.554749 18.627213,925.918213 
	C21.294987,924.559143 23.962759,923.200012 26.305080,922.006714 
	C26.926510,922.949707 27.912403,924.445801 29.688015,925.936096 
	C30.784363,924.035583 32.786705,922.155457 32.830029,920.231262 
	C33.111042,907.749084 32.975712,895.257324 32.946339,882.768738 
	C32.942951,881.327637 32.751949,879.886902 32.619545,878.052795 
	C28.514145,878.052795 24.795366,877.963257 21.093306,878.171387 
	C20.653091,878.196045 20.304188,879.845520 19.909714,881.494873 
	C19.950222,881.994873 19.990732,882.494934 19.237288,883.007446 
	C14.528075,883.168640 14.366692,883.291687 15.035016,886.850464 
M445.753540,483.371765 
	C439.167236,479.647339 432.580963,475.922913 425.463043,471.746918 
	C398.470520,456.112915 371.478027,440.478943 344.114197,424.629883 
	C344.000427,426.116302 343.906494,426.771545 343.906342,427.426819 
	C343.893372,481.736938 343.922180,536.047119 343.792450,590.356995 
	C343.784943,593.498291 345.266541,594.676819 347.560608,595.998474 
	C393.832489,622.655762 440.073334,649.366760 486.325409,676.058350 
	C487.665405,676.831726 489.059296,677.511780 490.922943,678.496948 
	C490.922943,665.432129 490.764252,653.271729 491.019165,641.120117 
	C491.096069,637.452820 489.894379,635.571594 486.729309,633.771484 
	C452.746490,614.443420 418.857697,594.949890 384.975098,575.446167 
	C383.487518,574.589844 381.239410,573.262329 381.165253,572.043518 
	C380.780121,565.712830 380.985992,559.346130 380.985992,552.193481 
	C418.077850,573.487610 454.204926,594.227844 490.923889,615.307861 
	C490.923889,602.481262 490.696350,590.514465 491.045441,578.564575 
	C491.170197,574.294312 489.780029,572.092163 486.132477,570.015259 
	C452.304047,550.753235 418.579651,531.308289 384.873840,511.831940 
	C383.325500,510.937256 381.212189,509.307556 381.118774,507.903320 
	C380.707397,501.719879 380.941132,495.493469 380.941132,488.660461 
	C390.553986,494.053864 399.363983,498.996826 408.618164,504.431610 
	C412.414459,506.556946 416.210724,508.682312 420.527985,511.269531 
	C443.802032,524.693604 467.076111,538.117615 490.923950,551.872620 
	C490.923950,537.949341 490.974060,524.966919 490.842010,511.986328 
	C490.829559,510.764587 489.991516,509.000977 488.994843,508.422424 
	C474.768097,500.163513 460.447937,492.065460 445.753540,483.371765 
M591.716614,505.967560 
	C593.807983,504.657715 595.899353,503.347870 598.684143,501.901337 
	C614.693542,492.687775 630.423828,482.931488 646.831543,474.492523 
	C654.878540,470.353699 658.173218,465.578888 657.443115,456.525787 
	C656.610229,446.198212 657.250366,435.751801 657.250366,425.146454 
	C656.703613,425.397614 656.108582,425.614990 655.568237,425.927002 
	C612.331543,450.892914 569.069458,475.814941 525.887634,500.875488 
	C515.214172,507.069855 509.991791,516.647400 509.989777,529.012695 
	C509.981781,577.841187 509.979340,626.669678 509.994019,675.498169 
	C509.994385,676.707458 510.217255,677.916565 510.395721,679.728699 
	C522.331360,672.870483 533.743652,666.417053 544.992126,659.689880 
	C546.126221,659.011658 546.773254,656.685425 546.794067,655.112732 
	C546.943848,643.782471 547.019897,632.446289 546.785156,621.118958 
	C546.713562,617.665833 547.842834,615.825378 550.823364,614.131042 
	C583.083496,595.791748 615.115356,577.044739 647.567444,559.054626 
	C654.927490,554.974487 658.026733,550.686768 657.279724,542.155151 
	C656.375488,531.829102 657.065308,521.363403 657.065308,509.987762 
	C619.938904,531.315247 583.694275,552.136169 546.871704,573.289124 
	C546.871704,563.639893 547.341187,554.805359 546.745667,546.043213 
	C546.089539,536.390259 548.467102,528.947693 558.758911,524.981506 
	C562.512817,522.687073 566.266663,520.392700 570.725769,517.984009 
	C577.496033,514.012939 584.266296,510.041870 591.716614,505.967560 
M443.658813,394.578491 
	C456.429474,387.454712 469.200134,380.330963 482.606232,372.852722 
	C470.962799,366.100372 460.456451,359.713684 449.623718,353.939301 
	C447.034485,352.559082 442.690430,351.926025 440.293823,353.161469 
	C428.748108,359.113373 417.592590,365.822144 405.669769,372.620911 
	C418.636414,380.123047 430.836182,387.181519 443.658813,394.578491 
M473.609833,345.828491 
	C480.817963,349.987274 487.864777,354.474213 495.316620,358.137207 
	C498.146973,359.528473 502.624451,360.422974 505.123993,359.144531 
	C516.632141,353.258636 527.706970,346.525696 539.578186,339.729645 
	C527.845337,332.936768 516.927246,326.313049 505.664398,320.339508 
	C503.293610,319.082123 499.094757,319.151276 496.699921,320.421814 
	C485.546600,326.339020 474.730835,332.892517 463.193390,339.566010 
	C466.805481,341.716370 469.908569,343.563690 473.609833,345.828491 
M569.850098,388.305664 
	C578.544250,383.272125 587.238464,378.238556 596.439270,372.911652 
	C585.074402,366.288757 574.570496,359.903748 563.768127,354.071564 
	C561.293701,352.735657 557.137756,352.037445 554.872498,353.207672 
	C543.306519,359.182434 532.106628,365.865875 520.063354,372.707764 
	C529.609070,378.274231 538.650635,382.896362 546.963379,388.583649 
	C554.719910,393.890411 561.772217,394.631714 569.850098,388.305664 
M457.899353,424.660980 
	C455.023804,422.999237 452.313293,420.829346 449.223969,419.825897 
	C446.417938,418.914429 442.574005,418.071564 440.268890,419.272980 
	C428.841034,425.229401 417.771332,431.872986 405.739685,438.752228 
	C417.846069,445.669403 429.116821,452.301025 440.624237,458.492889 
	C442.515839,459.510712 445.913422,459.461517 447.821503,458.433136 
	C459.314423,452.238953 470.576050,445.615631 482.428986,438.842346 
	C474.009521,433.968140 466.275909,429.490967 457.899353,424.660980 
M379.223816,423.337708 
	C384.287292,426.990570 389.246033,426.860168 394.523193,423.496704 
	C399.991364,420.011566 405.752930,416.988220 411.369507,413.734100 
	C415.766418,411.186615 420.137848,408.595032 425.043274,405.716309 
	C413.522827,399.040192 402.858612,392.541016 391.839050,386.713776 
	C389.295410,385.368683 384.911987,385.132904 382.441620,386.425262 
	C371.159302,392.327393 360.256714,398.955505 348.636169,405.658142 
	C359.016174,411.666870 368.786316,417.322540 379.223816,423.337708 
M499.922760,426.139313 
	C501.714722,425.907166 503.786713,426.178711 505.254089,425.362823 
	C516.513489,419.102356 527.655334,412.630554 539.459229,405.865875 
	C528.418457,399.466675 518.299438,393.142334 507.708191,387.744720 
	C504.556702,386.138580 499.378540,385.702118 496.335358,387.192657 
	C485.129761,392.681091 474.430389,399.202942 462.895355,405.699493 
	C468.124725,408.749481 472.503326,411.399750 476.972168,413.887939 
	C484.347626,417.994507 491.781342,421.996399 499.922760,426.139313 
M576.334595,427.212494 
	C572.154236,424.811157 568.156555,421.956848 563.727844,420.171539 
	C560.888977,419.027222 556.744934,418.162750 554.339294,419.405548 
	C542.917358,425.306122 531.891479,431.973572 519.925476,438.825562 
	C531.843994,445.664154 542.753052,452.316254 554.093140,458.127319 
	C556.621765,459.423096 560.984375,458.526184 563.939148,457.290894 
	C568.806824,455.255829 573.215088,452.121796 577.816589,449.450317 
	C583.783936,445.985870 589.750854,442.520782 596.170166,438.793396 
	C589.292480,434.802338 583.114563,431.217346 576.334595,427.212494 
M646.472839,402.053925 
	C640.294556,398.462982 633.698242,395.426086 628.034241,391.153442 
	C619.155151,384.455566 611.214478,384.694611 602.221252,391.058228 
	C594.487915,396.530273 585.881897,400.769073 577.075806,405.894257 
	C588.613098,412.578003 599.257019,419.038300 610.233093,424.873779 
	C612.650940,426.159271 616.834290,426.357513 619.200562,425.126373 
	C630.494446,419.250397 641.442322,412.709351 653.104980,406.067810 
	C650.675232,404.589081 648.887634,403.501221 646.472839,402.053925 
M468.309814,468.742065 
	C466.792328,469.655426 465.274841,470.568756 463.146698,471.849640 
	C474.730103,478.471130 485.718384,484.957062 496.951416,490.987152 
	C499.001343,492.087646 502.571350,492.315399 504.550140,491.266998 
	C516.091980,485.151825 527.368774,478.536224 539.248840,471.798248 
	C528.280457,465.446106 518.016907,459.630646 507.892914,453.581543 
	C503.244690,450.804260 499.002838,450.779602 494.351532,453.588959 
	C485.958618,458.658081 477.393494,463.442169 468.309814,468.742065 
M16.106560,950.910034 
	C18.130726,951.034546 20.154894,951.158997 21.231436,951.225220 
	C20.934818,955.571838 20.696907,959.058167 20.444279,962.760132 
	C18.916395,963.386292 16.760733,964.269714 15.334158,964.854370 
	C18.712011,968.461182 21.497046,971.434998 24.683184,974.837097 
	C21.834948,975.895813 19.759827,976.413696 17.972282,977.434937 
	C17.032516,977.971863 16.240633,979.339661 16.087990,980.430969 
	C16.016108,980.944946 17.516775,981.946838 18.463289,982.287781 
	C22.164047,983.621033 25.928085,984.778564 30.042219,986.123596 
	C29.957994,984.776184 30.209749,983.749695 29.807287,983.224548 
	C27.864498,980.689270 26.116110,978.334351 30.043921,975.982910 
	C30.471203,975.727051 30.640715,974.784180 30.664110,974.150146 
	C30.883455,968.205872 28.269670,962.264038 30.662401,956.300293 
	C30.813540,955.923584 30.424963,955.359802 30.397251,954.876770 
	C30.288595,952.982788 30.107430,951.081970 30.176872,949.191895 
	C30.241972,947.420166 30.589590,945.658813 30.796505,944.022400 
	C28.593573,942.982727 26.778820,942.126282 25.965055,941.742249 
	C27.696579,939.239746 29.421562,937.072998 30.675062,934.661194 
	C30.927387,934.175720 29.390280,932.760315 28.248632,931.178406 
	C27.741209,933.813110 27.442644,935.363342 27.032734,937.491699 
	C25.952551,934.837463 25.201624,932.992310 24.450720,931.147156 
	C23.291149,931.703308 21.185349,932.185913 21.135433,932.828308 
	C20.916759,935.642639 21.293486,938.503235 21.454224,941.347046 
	C21.961969,941.584167 22.469715,941.821289 22.977461,942.058350 
	C20.452215,944.131409 17.873209,946.145142 15.454717,948.335999 
	C15.051303,948.701416 15.346018,949.837402 16.106560,950.910034 
M27.340349,873.962158 
	C29.556068,873.962158 31.771786,873.962158 35.111862,873.962158 
	C33.810013,872.079224 33.148449,870.470276 32.665031,870.522034 
	C26.579468,871.174866 20.072704,868.815430 14.380479,872.369507 
	C14.386815,872.899902 14.393151,873.430298 14.399487,873.960693 
	C18.399036,873.960693 22.398584,873.960693 27.340349,873.962158 
z"/>
<path fill="#960298" opacity="1.000000" stroke="none" 
	d="
M408.174011,503.939758 
	C399.363983,498.996826 390.553986,494.053864 380.941132,488.660461 
	C380.941132,495.493469 380.707397,501.719879 381.118774,507.903320 
	C381.212189,509.307556 383.325500,510.937256 384.873840,511.831940 
	C418.579651,531.308289 452.304047,550.753235 486.132477,570.015259 
	C489.780029,572.092163 491.170197,574.294312 491.045441,578.564575 
	C490.696350,590.514465 490.923889,602.481262 490.923889,615.307861 
	C454.204926,594.227844 418.077850,573.487610 380.985992,552.193481 
	C380.985992,559.346130 380.780121,565.712830 381.165253,572.043518 
	C381.239410,573.262329 383.487518,574.589844 384.975098,575.446167 
	C418.857697,594.949890 452.746490,614.443420 486.729309,633.771484 
	C489.894379,635.571594 491.096069,637.452820 491.019165,641.120117 
	C490.764252,653.271729 490.922943,665.432129 490.922943,678.496948 
	C489.059296,677.511780 487.665405,676.831726 486.325409,676.058350 
	C440.073334,649.366760 393.832489,622.655762 347.560608,595.998474 
	C345.266541,594.676819 343.784943,593.498291 343.792450,590.356995 
	C343.922180,536.047119 343.893372,481.736938 343.906342,427.426819 
	C343.906494,426.771545 344.000427,426.116302 344.114197,424.629883 
	C371.478027,440.478943 398.470520,456.112915 425.688477,472.303223 
	C426.395538,474.525970 426.538879,476.407806 427.432617,477.811951 
	C429.053009,480.357666 431.120422,482.618835 433.000610,484.999390 
	C433.000000,485.000000 432.998779,485.001221 432.633118,484.961975 
	C428.820618,482.741791 425.389313,482.777954 422.327179,485.479187 
	C419.296356,488.152710 419.571716,491.556732 420.821869,495.038544 
	C421.036530,495.636353 420.949097,496.342621 421.000610,496.999390 
	C421.000000,497.000000 420.998871,497.001160 420.699341,496.855652 
	C418.129639,494.514984 415.967987,492.186462 413.526978,490.201447 
	C412.736511,489.558624 411.213684,489.816406 410.025818,489.662231 
	C410.086121,490.945160 409.925842,492.299866 410.308899,493.477783 
	C410.475952,493.991364 411.756866,494.142670 411.607697,494.081879 
	C410.190918,498.149414 409.182465,501.044586 408.174011,503.939758 
M453.221130,633.985413 
	C452.312622,633.657410 451.314301,633.474182 450.511292,632.976074 
	C447.190765,630.916443 444.390778,632.157227 442.091614,634.549194 
	C439.519440,637.225281 439.189209,640.449768 441.371674,643.585815 
	C443.429169,646.542358 446.042603,649.263855 449.961731,647.730713 
	C452.994263,646.544434 455.749481,644.430786 455.005890,640.300781 
	C454.629456,638.209778 454.335144,636.104004 454.670197,634.343872 
	C459.792145,637.353943 461.373505,636.971863 467.943939,630.553040 
	C465.650696,630.673035 464.183380,630.757080 462.715271,630.824768 
	C460.750214,630.915283 458.784576,630.992981 456.819153,631.076172 
	C457.095581,628.998779 457.403137,626.924927 457.635895,624.842651 
	C457.758881,623.742493 457.751434,622.627747 457.802917,621.519653 
	C456.627441,621.770874 455.152588,621.659241 454.329926,622.338074 
	C451.267090,624.865173 451.235931,629.601318 453.221130,633.985413 
z"/>
<path fill="#455459" opacity="1.000000" stroke="none" 
	d="
M558.057007,525.102356 
	C548.467102,528.947693 546.089539,536.390259 546.745667,546.043213 
	C547.341187,554.805359 546.871704,563.639893 546.871704,573.289124 
	C583.694275,552.136169 619.938904,531.315247 657.065308,509.987762 
	C657.065308,521.363403 656.375488,531.829102 657.279724,542.155151 
	C658.026733,550.686768 654.927490,554.974487 647.567444,559.054626 
	C615.115356,577.044739 583.083496,595.791748 550.823364,614.131042 
	C547.842834,615.825378 546.713562,617.665833 546.785156,621.118958 
	C547.019897,632.446289 546.943848,643.782471 546.794067,655.112732 
	C546.773254,656.685425 546.126221,659.011658 544.992126,659.689880 
	C533.743652,666.417053 522.331360,672.870483 510.395721,679.728699 
	C510.217255,677.916565 509.994385,676.707458 509.994019,675.498169 
	C509.979340,626.669678 509.981781,577.841187 509.989777,529.012695 
	C509.991791,516.647400 515.214172,507.069855 525.887634,500.875488 
	C569.069458,475.814941 612.331543,450.892914 655.568237,425.927002 
	C656.108582,425.614990 656.703613,425.397614 657.250366,425.146454 
	C657.250366,435.751801 656.610229,446.198212 657.443115,456.525787 
	C658.173218,465.578888 654.878540,470.353699 646.831543,474.492523 
	C630.423828,482.931488 614.693542,492.687775 598.384888,501.567627 
	C598.247559,498.639618 599.472534,495.411713 598.373962,493.568787 
	C594.962830,487.846222 589.724365,493.585968 584.199463,492.512817 
	C585.798279,490.548553 586.931885,489.336609 587.834778,487.972076 
	C588.301208,487.267181 588.646362,486.234222 588.492859,485.459015 
	C588.399597,484.987488 587.209656,484.360016 586.584412,484.431732 
	C583.945984,484.734406 580.166199,490.841064 581.152832,493.525482 
	C582.486145,497.153076 585.053101,498.645569 589.019226,497.165741 
	C590.739136,496.524048 592.654419,496.405975 594.480957,496.050018 
	C594.724121,496.418457 594.967346,496.786896 595.210510,497.155304 
	C594.438782,498.259186 593.903259,499.905182 592.850403,500.364105 
	C589.824097,501.683075 590.277893,503.745697 591.036560,506.070801 
	C584.266296,510.041870 577.496033,514.012939 570.330261,517.669067 
	C568.571472,513.727783 565.657776,512.906433 562.847900,514.779175 
	C559.522583,516.995422 557.000793,516.739380 553.661072,514.026672 
	C553.229553,515.953918 553.089294,517.778259 553.805359,519.158203 
	C554.916016,521.298645 556.610168,523.136353 558.057007,525.102356 
M616.125854,482.299744 
	C616.319885,479.818634 616.513977,477.337494 616.643127,475.685699 
	C619.692993,474.760834 622.693970,474.162811 625.367615,472.881744 
	C626.393188,472.390381 626.671936,470.340393 627.291016,469.000641 
	C626.055115,469.292664 624.832886,469.705475 623.580017,469.846710 
	C621.947571,470.030762 619.528442,470.682922 618.825317,469.898651 
	C617.799927,468.755005 617.685669,466.492188 617.794983,464.744781 
	C617.862671,463.662720 619.064392,462.651611 619.803040,461.539429 
	C615.468994,460.068542 614.584717,461.312683 612.285828,471.732788 
	C611.532043,471.652222 610.663086,471.302124 609.995544,471.533417 
	C607.408569,472.429565 604.150452,472.856964 602.522949,474.686829 
	C600.439087,477.029846 600.441467,480.423462 602.842896,483.325073 
	C606.520874,487.769012 610.815918,487.682953 616.125854,482.299744 
M532.690918,549.861877 
	C531.082886,549.005310 529.556702,547.783386 527.842773,547.399170 
	C526.258484,547.044067 524.032654,547.029541 522.916931,547.911682 
	C522.042114,548.603333 521.813477,551.167969 522.371033,552.424011 
	C524.303467,556.777527 526.641235,560.958679 528.986084,565.114380 
	C529.402771,565.852905 530.589600,566.156799 531.420776,566.661377 
	C531.736145,565.705994 532.466187,564.670166 532.298889,563.808533 
	C531.293030,558.628967 533.043030,556.769958 538.351013,557.170410 
	C539.846680,557.283203 541.417664,556.398438 542.954102,555.971252 
	C542.885132,555.449829 542.816162,554.928406 542.747192,554.407043 
	C539.623657,552.994568 536.500183,551.582092 532.690918,549.861877 
M629.095764,467.430664 
	C632.257202,466.353424 632.257202,466.353424 630.434265,461.364105 
	C633.251831,460.914093 637.223022,463.841827 638.724670,458.533905 
	C635.965271,457.830017 633.328125,457.157349 630.637207,456.470947 
	C629.893372,454.436829 629.136719,452.367615 628.380066,450.298431 
	C627.971313,450.279816 627.562622,450.261230 627.153931,450.242645 
	C626.527161,452.360474 625.900330,454.478333 625.061829,457.311462 
	C623.292175,455.639587 622.021179,454.158569 620.471985,453.075256 
	C619.465759,452.371613 618.054077,452.247772 616.824036,451.864166 
	C617.093750,453.284943 616.887939,455.135529 617.716003,456.051514 
	C621.153687,459.854156 624.903320,463.374695 629.095764,467.430664 
z"/>
<path fill="#960298" opacity="1.000000" stroke="none" 
	d="
M446.150299,483.928650 
	C460.447937,492.065460 474.768097,500.163513 488.994843,508.422424 
	C489.991516,509.000977 490.829559,510.764587 490.842010,511.986328 
	C490.974060,524.966919 490.923950,537.949341 490.923950,551.872620 
	C467.076111,538.117615 443.802032,524.693604 420.337311,510.704651 
	C426.042725,505.762482 426.187805,503.526154 420.998871,497.001160 
	C420.998871,497.001160 421.000000,497.000000 421.390015,497.006348 
	C425.890381,498.727051 429.904968,500.795380 433.586823,495.971985 
	C436.622589,491.994965 434.311737,488.590851 432.998779,485.001221 
	C432.998779,485.001221 433.000000,485.000000 433.351685,485.035828 
	C434.275726,485.369690 434.926758,485.574463 435.408203,485.980377 
	C440.133972,489.964630 440.640381,489.913910 444.595856,485.087585 
	C444.993439,484.602478 445.626526,484.310333 446.150299,483.928650 
z"/>
<path fill="#46555A" opacity="1.000000" stroke="none" 
	d="
M443.347412,394.409241 
	C430.836182,387.181519 418.636414,380.123047 405.669769,372.620911 
	C417.592590,365.822144 428.748108,359.113373 440.293823,353.161469 
	C442.690430,351.926025 447.034485,352.559082 449.623718,353.939301 
	C460.456451,359.713684 470.962799,366.100372 482.606232,372.852722 
	C469.200134,380.330963 456.429474,387.454712 443.347412,394.409241 
z"/>
<path fill="#970499" opacity="1.000000" stroke="none" 
	d="
M473.310730,345.619751 
	C469.908569,343.563690 466.805481,341.716370 463.193390,339.566010 
	C474.730835,332.892517 485.546600,326.339020 496.699921,320.421814 
	C499.094757,319.151276 503.293610,319.082123 505.664398,320.339508 
	C516.927246,326.313049 527.845337,332.936768 539.578186,339.729645 
	C527.706970,346.525696 516.632141,353.258636 505.123993,359.144531 
	C502.624451,360.422974 498.146973,359.528473 495.316620,358.137207 
	C487.864777,354.474213 480.817963,349.987274 473.310730,345.619751 
z"/>
<path fill="#46555A" opacity="1.000000" stroke="none" 
	d="
M569.545593,388.513428 
	C561.772217,394.631714 554.719910,393.890411 546.963379,388.583649 
	C538.650635,382.896362 529.609070,378.274231 520.063354,372.707764 
	C532.106628,365.865875 543.306519,359.182434 554.872498,353.207672 
	C557.137756,352.037445 561.293701,352.735657 563.768127,354.071564 
	C574.570496,359.903748 585.074402,366.288757 596.439270,372.911652 
	C587.238464,378.238556 578.544250,383.272125 569.545593,388.513428 
z"/>
<path fill="#46555A" opacity="1.000000" stroke="none" 
	d="
M458.220825,424.837402 
	C466.275909,429.490967 474.009521,433.968140 482.428986,438.842346 
	C470.576050,445.615631 459.314423,452.238953 447.821503,458.433136 
	C445.913422,459.461517 442.515839,459.510712 440.624237,458.492889 
	C429.116821,452.301025 417.846069,445.669403 405.739685,438.752228 
	C417.771332,431.872986 428.841034,425.229401 440.268890,419.272980 
	C442.574005,418.071564 446.417938,418.914429 449.223969,419.825897 
	C452.313293,420.829346 455.023804,422.999237 458.220825,424.837402 
z"/>
<path fill="#970499" opacity="1.000000" stroke="none" 
	d="
M378.890137,423.157959 
	C368.786316,417.322540 359.016174,411.666870 348.636169,405.658142 
	C360.256714,398.955505 371.159302,392.327393 382.441620,386.425262 
	C384.911987,385.132904 389.295410,385.368683 391.839050,386.713776 
	C402.858612,392.541016 413.522827,399.040192 425.043274,405.716309 
	C420.137848,408.595032 415.766418,411.186615 411.369507,413.734100 
	C405.752930,416.988220 399.991364,420.011566 394.523193,423.496704 
	C389.246033,426.860168 384.287292,426.990570 378.890137,423.157959 
z"/>
<path fill="#970499" opacity="1.000000" stroke="none" 
	d="
M499.556641,426.090881 
	C491.781342,421.996399 484.347626,417.994507 476.972168,413.887939 
	C472.503326,411.399750 468.124725,408.749481 462.895355,405.699493 
	C474.430389,399.202942 485.129761,392.681091 496.335358,387.192657 
	C499.378540,385.702118 504.556702,386.138580 507.708191,387.744720 
	C518.299438,393.142334 528.418457,399.466675 539.459229,405.865875 
	C527.655334,412.630554 516.513489,419.102356 505.254089,425.362823 
	C503.786713,426.178711 501.714722,425.907166 499.556641,426.090881 
z"/>
<path fill="#46555A" opacity="1.000000" stroke="none" 
	d="
M576.635620,427.422424 
	C583.114563,431.217346 589.292480,434.802338 596.170166,438.793396 
	C589.750854,442.520782 583.783936,445.985870 577.816589,449.450317 
	C573.215088,452.121796 568.806824,455.255829 563.939148,457.290894 
	C560.984375,458.526184 556.621765,459.423096 554.093140,458.127319 
	C542.753052,452.316254 531.843994,445.664154 519.925476,438.825562 
	C531.891479,431.973572 542.917358,425.306122 554.339294,419.405548 
	C556.744934,418.162750 560.888977,419.027222 563.727844,420.171539 
	C568.156555,421.956848 572.154236,424.811157 576.635620,427.422424 
z"/>
<path fill="#970499" opacity="1.000000" stroke="none" 
	d="
M646.786499,402.233643 
	C648.887634,403.501221 650.675232,404.589081 653.104980,406.067810 
	C641.442322,412.709351 630.494446,419.250397 619.200562,425.126373 
	C616.834290,426.357513 612.650940,426.159271 610.233093,424.873779 
	C599.257019,419.038300 588.613098,412.578003 577.075806,405.894257 
	C585.881897,400.769073 594.487915,396.530273 602.221252,391.058228 
	C611.214478,384.694611 619.155151,384.455566 628.034241,391.153442 
	C633.698242,395.426086 640.294556,398.462982 646.786499,402.233643 
z"/>
<path fill="#970499" opacity="1.000000" stroke="none" 
	d="
M468.605072,468.543701 
	C477.393494,463.442169 485.958618,458.658081 494.351532,453.588959 
	C499.002838,450.779602 503.244690,450.804260 507.892914,453.581543 
	C518.016907,459.630646 528.280457,465.446106 539.248840,471.798248 
	C527.368774,478.536224 516.091980,485.151825 504.550140,491.266998 
	C502.571350,492.315399 499.001343,492.087646 496.951416,490.987152 
	C485.718384,484.957062 474.730103,478.471130 463.146698,471.849640 
	C465.274841,470.568756 466.792328,469.655426 468.605072,468.543701 
z"/>
<path fill="#E2E2E2" opacity="1.000000" stroke="none" 
	d="
M16.207962,783.319885 
	C17.162275,781.353577 18.116594,779.387207 19.472982,777.214722 
	C22.180159,777.629089 24.558977,778.880371 26.761480,778.622925 
	C27.994287,778.478821 29.791452,775.818054 29.763580,774.320435 
	C29.736290,772.854126 27.910345,770.556946 26.510908,770.243164 
	C25.304729,769.972778 23.528254,771.906128 22.133720,773.026794 
	C21.725208,773.354980 21.760399,774.235291 21.685633,774.514221 
	C19.985485,773.214233 18.559959,772.124268 17.134426,771.034302 
	C17.001795,770.420654 16.869175,769.807007 17.371597,769.008667 
	C18.614277,766.982910 19.221912,765.141785 19.901417,763.082947 
	C23.111828,764.499817 26.315569,765.913696 29.519310,767.327637 
	C29.781519,766.762146 30.043730,766.196655 30.305941,765.631226 
	C26.159962,763.238953 22.017155,760.840698 17.049984,760.011353 
	C15.283584,756.825867 18.207581,756.817749 19.494177,757.227661 
	C23.700502,758.567993 27.826138,760.257996 31.776386,762.227478 
	C32.608414,762.642395 32.761772,764.801086 32.875011,766.185181 
	C33.043858,768.248901 33.013283,770.346497 32.866055,772.415283 
	C32.467392,778.017151 31.719219,783.605225 31.577091,789.210632 
	C31.464092,793.667114 32.017174,798.142700 32.332176,802.605713 
	C32.389278,803.414734 33.123497,804.368042 32.872482,804.977905 
	C28.917961,814.586243 34.481636,824.223816 32.681854,833.922241 
	C31.845936,838.426758 33.018456,843.269531 32.867916,847.945618 
	C32.720913,852.511841 32.401279,857.141724 31.389553,861.568176 
	C31.089491,862.881042 28.192692,863.600403 26.347345,864.022949 
	C27.081924,863.213928 27.954935,862.973633 29.135557,862.648682 
	C27.920559,861.806274 27.022976,861.183899 25.838161,860.362427 
	C27.096767,859.979980 27.964939,859.716187 28.833111,859.452393 
	C28.915987,858.928223 28.998863,858.404114 29.081739,857.880005 
	C25.389418,857.259155 21.697094,856.638306 18.004776,856.017395 
	C17.762621,855.413269 17.520460,854.809082 17.664965,853.997192 
	C18.835674,852.201721 19.619719,850.613953 20.692949,848.440552 
	C21.603174,850.072266 22.175962,851.099060 22.685749,852.012939 
	C24.119953,850.798584 25.332287,849.772095 26.544640,848.745605 
	C27.123425,850.462524 27.702188,852.179443 28.276402,853.898010 
	C30.764542,850.918701 30.252581,846.421021 27.159504,846.275635 
	C23.883682,846.121460 20.540852,847.392090 17.227289,848.040466 
	C17.461494,846.586365 17.695700,845.132324 18.307163,843.446411 
	C21.169529,843.506042 23.779781,844.379944 26.095400,843.882507 
	C27.618557,843.555237 29.731220,841.250854 29.731895,839.830994 
	C29.732634,838.283264 27.621958,835.460388 26.390730,835.437866 
	C23.346703,835.382263 20.279261,836.609192 17.221228,837.320618 
	C17.205059,836.041870 17.188890,834.763062 17.617695,833.128296 
	C18.851818,831.188660 19.640970,829.605042 20.696409,827.487061 
	C21.602209,829.091553 22.178783,830.112854 22.879126,831.353394 
	C23.999599,829.813904 24.868517,828.620056 26.653688,826.167297 
	C27.263136,829.361206 27.609999,831.179016 27.956863,832.996826 
	C28.391872,833.054993 28.826880,833.113159 29.261889,833.171387 
	C29.423325,831.402161 30.097034,829.462891 29.584019,827.917542 
	C29.174015,826.682556 27.237698,825.025696 26.122147,825.127441 
	C22.770187,825.433105 19.488325,826.507507 16.179131,827.282043 
	C16.710224,826.032959 17.241308,824.783936 18.321327,823.247681 
	C22.720430,823.779419 25.010008,822.232056 25.334854,817.828186 
	C26.800772,819.628906 27.806879,820.864807 29.547510,823.002991 
	C28.496723,814.461182 23.478767,812.119568 17.471010,816.082092 
	C18.005318,814.190002 18.539618,812.297852 19.475319,810.206970 
	C22.174772,810.635803 24.601864,811.996216 26.723610,811.622620 
	C28.045492,811.389832 29.565044,808.601257 29.739286,806.835693 
	C29.853575,805.677612 27.766260,803.318176 26.588245,803.267090 
	C25.134504,803.204163 23.541775,804.903198 22.139071,806.006104 
	C21.728546,806.328857 21.760574,807.214478 21.685753,807.489380 
	C19.981789,806.196533 18.556036,805.114807 17.130297,804.033081 
	C14.106951,800.012573 19.250233,801.781494 20.364689,800.097046 
	C22.176384,800.297485 23.715286,801.343506 24.583229,800.941406 
	C26.552952,800.028809 28.842199,798.718262 29.703125,796.940674 
	C30.160881,795.995483 28.267570,792.844910 26.808985,792.264587 
	C23.941189,791.123657 22.284620,793.086609 21.947250,796.067078 
	C21.914444,796.356812 21.470045,796.599976 21.610449,796.453247 
	C19.944878,795.180542 18.541113,794.107910 17.137352,793.035278 
	C17.393684,791.795715 17.650011,790.556213 18.421507,789.130127 
	C20.833029,789.317810 23.019035,790.459045 24.554966,789.879028 
	C26.638311,789.092163 28.223803,786.987122 30.022858,785.447510 
	C28.336243,783.976013 26.718296,781.395325 24.947342,781.285706 
	C22.087166,781.108643 19.126303,782.557678 16.207962,783.319885 
z"/>
<path fill="#585858" opacity="1.000000" stroke="none" 
	d="
M15.712359,950.763672 
	C15.346018,949.837402 15.051303,948.701416 15.454717,948.335999 
	C17.873209,946.145142 20.452215,944.131409 22.977461,942.058350 
	C22.469715,941.821289 21.961969,941.584167 21.454224,941.347046 
	C21.293486,938.503235 20.916759,935.642639 21.135433,932.828308 
	C21.185349,932.185913 23.291149,931.703308 24.450706,931.147156 
	C25.201624,932.992310 25.952551,934.837463 27.032734,937.491699 
	C27.442644,935.363342 27.741209,933.813110 28.248632,931.178406 
	C29.390280,932.760315 30.927387,934.175720 30.675062,934.661194 
	C29.421562,937.072998 27.696579,939.239746 25.965055,941.742249 
	C26.778820,942.126282 28.593573,942.982727 30.796505,944.022400 
	C30.589590,945.658813 30.241972,947.420166 30.176872,949.191895 
	C30.107430,951.081970 30.288595,952.982788 30.397251,954.876770 
	C30.424963,955.359802 30.813540,955.923584 30.662401,956.300293 
	C28.269670,962.264038 30.883455,968.205872 30.664110,974.150146 
	C30.640715,974.784180 30.471203,975.727051 30.043921,975.982910 
	C26.116110,978.334351 27.864498,980.689270 29.807287,983.224548 
	C30.209749,983.749695 29.957994,984.776184 30.042219,986.123596 
	C25.928085,984.778564 22.164047,983.621033 18.463289,982.287781 
	C17.516775,981.946838 16.016108,980.944946 16.087990,980.430969 
	C16.240633,979.339661 17.032516,977.971863 17.972282,977.434937 
	C19.759827,976.413696 21.834948,975.895813 24.683184,974.837097 
	C21.497046,971.434998 18.712011,968.461182 15.334158,964.854370 
	C16.760733,964.269714 18.916395,963.386292 20.444279,962.760132 
	C20.696907,959.058167 20.934818,955.571838 21.231436,951.225220 
	C20.154894,951.158997 18.130726,951.034546 15.712359,950.763672 
M23.947666,955.446899 
	C23.460985,956.476318 22.974304,957.505737 22.487614,958.535156 
	C23.644548,958.934937 24.810417,959.645447 25.954906,959.612549 
	C26.593908,959.594116 27.197399,958.340820 27.816891,957.644043 
	C26.760744,956.855835 25.704597,956.067566 23.947666,955.446899 
M28.537668,951.454224 
	C27.540228,951.454224 26.542788,951.454224 25.545345,951.454224 
	C25.592068,951.869385 25.638788,952.284546 25.685509,952.699707 
	C26.659271,952.634155 27.633036,952.568542 28.537668,951.454224 
z"/>
<path fill="#E2E2E2" opacity="1.000000" stroke="none" 
	d="
M20.165264,902.252930 
	C20.132193,900.745300 20.099119,899.237671 20.479870,897.324219 
	C23.682476,898.205383 26.671293,899.392700 28.876003,896.326660 
	C29.784920,895.062683 29.539928,892.968933 29.952169,890.440491 
	C27.609844,892.955078 26.297415,894.364014 24.984974,895.772949 
	C23.936472,894.324768 22.954479,892.819763 21.796764,891.464905 
	C21.472143,891.084961 20.630630,891.146606 20.026190,891.005676 
	C19.693823,890.580750 19.361460,890.155762 19.449673,889.353149 
	C23.260134,888.866455 26.650021,888.757446 30.039907,888.648499 
	C30.046753,888.116638 30.053598,887.584778 30.060444,887.052917 
	C28.945639,886.549011 27.830833,886.045044 27.038671,885.687012 
	C28.246099,883.868164 29.290636,882.294678 30.335175,880.721191 
	C30.038330,880.496887 29.741488,880.272522 29.444645,880.048157 
	C27.781424,881.321167 26.118200,882.594116 24.697538,883.681458 
	C22.922569,882.590942 21.417774,881.666382 19.912971,880.741882 
	C20.304188,879.845520 20.653091,878.196045 21.093306,878.171387 
	C24.795366,877.963257 28.514145,878.052795 32.619545,878.052795 
	C32.751949,879.886902 32.942951,881.327637 32.946339,882.768738 
	C32.975712,895.257324 33.111042,907.749084 32.830029,920.231262 
	C32.786705,922.155457 30.784363,924.035583 29.414761,925.572021 
	C28.821766,922.657715 29.426561,918.770630 28.017200,917.795898 
	C22.789318,914.180481 22.680157,921.626831 18.506414,923.214539 
	C18.506414,921.295349 18.700657,919.916138 18.391623,918.660950 
	C18.295120,918.268982 16.839792,918.211548 16.006491,918.000977 
	C16.176167,916.753967 16.345839,915.507019 17.166977,914.216064 
	C21.487095,916.933044 25.122511,914.322937 28.731882,913.920044 
	C29.291132,913.857605 29.621933,911.748657 30.134029,910.384521 
	C27.621120,911.060425 24.957561,912.481262 24.285694,911.834106 
	C21.557041,909.206238 19.471703,912.080078 17.144531,912.037170 
	C14.184232,908.351746 19.756165,909.315918 20.360182,907.305908 
	C23.443850,909.970032 26.451307,910.254089 28.589018,907.604126 
	C29.617559,906.329041 29.355179,901.983582 28.736595,901.771423 
	C26.453753,900.988342 23.777803,901.310974 21.250345,901.326965 
	C20.886711,901.329285 20.526865,901.929443 20.165264,902.252930 
z"/>
<path fill="#970499" opacity="1.000000" stroke="none" 
	d="
M420.699341,496.855652 
	C426.187805,503.526154 426.042725,505.762482 420.076843,510.473724 
	C416.210724,508.682312 412.414459,506.556946 408.396118,504.185669 
	C409.182465,501.044586 410.190918,498.149414 411.607697,494.081879 
	C411.756866,494.142670 410.475952,493.991364 410.308899,493.477783 
	C409.925842,492.299866 410.086121,490.945160 410.025818,489.662231 
	C411.213684,489.816406 412.736511,489.558624 413.526978,490.201447 
	C415.967987,492.186462 418.129639,494.514984 420.699341,496.855652 
z"/>
<path fill="#585858" opacity="1.000000" stroke="none" 
	d="
M591.376587,506.019165 
	C590.277893,503.745697 589.824097,501.683075 592.850403,500.364105 
	C593.903259,499.905182 594.438782,498.259186 595.210510,497.155304 
	C594.967346,496.786896 594.724121,496.418457 594.480957,496.050018 
	C592.654419,496.405975 590.739136,496.524048 589.019226,497.165741 
	C585.053101,498.645569 582.486145,497.153076 581.152832,493.525482 
	C580.166199,490.841064 583.945984,484.734406 586.584412,484.431732 
	C587.209656,484.360016 588.399597,484.987488 588.492859,485.459015 
	C588.646362,486.234222 588.301208,487.267181 587.834778,487.972076 
	C586.931885,489.336609 585.798279,490.548553 584.199463,492.512817 
	C589.724365,493.585968 594.962830,487.846222 598.373962,493.568787 
	C599.472534,495.411713 598.247559,498.639618 598.038147,501.635986 
	C595.899353,503.347870 593.807983,504.657715 591.376587,506.019165 
z"/>
<path fill="#970499" opacity="1.000000" stroke="none" 
	d="
M445.951904,483.650208 
	C445.626526,484.310333 444.993439,484.602478 444.595856,485.087585 
	C440.640381,489.913910 440.133972,489.964630 435.408203,485.980377 
	C434.926758,485.574463 434.275726,485.369690 433.352295,485.035217 
	C431.120422,482.618835 429.053009,480.357666 427.432617,477.811951 
	C426.538879,476.407806 426.395538,474.525970 425.954285,472.528992 
	C432.580963,475.922913 439.167236,479.647339 445.951904,483.650208 
z"/>
<path fill="#585858" opacity="1.000000" stroke="none" 
	d="
M558.407959,525.041931 
	C556.610168,523.136353 554.916016,521.298645 553.805359,519.158203 
	C553.089294,517.778259 553.229553,515.953918 553.661072,514.026672 
	C557.000793,516.739380 559.522583,516.995422 562.847900,514.779175 
	C565.657776,512.906433 568.571472,513.727783 569.977661,517.726196 
	C566.266663,520.392700 562.512817,522.687073 558.407959,525.041931 
z"/>
<path fill="#585858" opacity="1.000000" stroke="none" 
	d="
M17.154358,837.687134 
	C20.279261,836.609192 23.346703,835.382263 26.390730,835.437866 
	C27.621958,835.460388 29.732634,838.283264 29.731895,839.830994 
	C29.731220,841.250854 27.618557,843.555237 26.095400,843.882507 
	C23.779781,844.379944 21.169529,843.506042 18.341949,843.107910 
	C17.695482,841.352112 17.391485,839.702881 17.154358,837.687134 
z"/>
<path fill="#585858" opacity="1.000000" stroke="none" 
	d="
M26.869240,873.961426 
	C22.398584,873.960693 18.399036,873.960693 14.399487,873.960693 
	C14.393151,873.430298 14.386815,872.899902 14.380479,872.369507 
	C20.072704,868.815430 26.579468,871.174866 32.665031,870.522034 
	C33.148449,870.470276 33.810013,872.079224 35.111862,873.962158 
	C31.771786,873.962158 29.556068,873.962158 26.869240,873.961426 
z"/>
<path fill="#585858" opacity="1.000000" stroke="none" 
	d="
M17.097954,771.377014 
	C18.559959,772.124268 19.985485,773.214233 21.685633,774.514221 
	C21.760399,774.235291 21.725208,773.354980 22.133720,773.026794 
	C23.528254,771.906128 25.304729,769.972778 26.510908,770.243164 
	C27.910345,770.556946 29.736290,772.854126 29.763580,774.320435 
	C29.791452,775.818054 27.994287,778.478821 26.761480,778.622925 
	C24.558977,778.880371 22.180159,777.629089 19.542246,776.838745 
	C18.493450,775.019165 17.777462,773.369446 17.097954,771.377014 
z"/>
<path fill="#585858" opacity="1.000000" stroke="none" 
	d="
M17.100199,793.383057 
	C18.541113,794.107910 19.944878,795.180542 21.610449,796.453247 
	C21.470045,796.599976 21.914444,796.356812 21.947250,796.067078 
	C22.284620,793.086609 23.941189,791.123657 26.808985,792.264587 
	C28.267570,792.844910 30.160881,795.995483 29.703125,796.940674 
	C28.842199,798.718262 26.552952,800.028809 24.583229,800.941406 
	C23.715286,801.343506 22.176384,800.297485 20.570412,799.783936 
	C19.153494,797.682922 18.108273,795.706848 17.100199,793.383057 
z"/>
<path fill="#585858" opacity="1.000000" stroke="none" 
	d="
M17.093475,804.375916 
	C18.556036,805.114807 19.981789,806.196533 21.685753,807.489380 
	C21.760574,807.214478 21.728546,806.328857 22.139071,806.006104 
	C23.541775,804.903198 25.134504,803.204163 26.588245,803.267090 
	C27.766260,803.318176 29.853575,805.677612 29.739286,806.835693 
	C29.565044,808.601257 28.045492,811.389832 26.723610,811.622620 
	C24.601864,811.996216 22.174772,810.635803 19.543362,809.838013 
	C18.492226,808.018188 17.774446,806.368469 17.093475,804.375916 
z"/>
<path fill="#585858" opacity="1.000000" stroke="none" 
	d="
M17.334448,816.457520 
	C23.478767,812.119568 28.496723,814.461182 29.547510,823.002991 
	C27.806879,820.864807 26.800772,819.628906 25.334854,817.828186 
	C25.010008,822.232056 22.720430,823.779419 18.463428,822.923767 
	C17.770361,820.869080 17.484125,818.851013 17.334448,816.457520 
z"/>
<path fill="#585858" opacity="1.000000" stroke="none" 
	d="
M15.979809,918.414368 
	C16.839792,918.211548 18.295120,918.268982 18.391623,918.660950 
	C18.700657,919.916138 18.506414,921.295349 18.506414,923.214539 
	C22.680157,921.626831 22.789318,914.180481 28.017200,917.795898 
	C29.426561,918.770630 28.821766,922.657715 29.019901,925.574951 
	C27.912403,924.445801 26.926510,922.949707 26.305080,922.006714 
	C23.962759,923.200012 21.294987,924.559143 18.627228,925.918213 
	C17.735872,923.554749 16.844503,921.191284 15.979809,918.414368 
z"/>
<path fill="#585858" opacity="1.000000" stroke="none" 
	d="
M19.911346,881.118408 
	C21.417774,881.666382 22.922569,882.590942 24.697538,883.681458 
	C26.118200,882.594116 27.781424,881.321167 29.444645,880.048157 
	C29.741488,880.272522 30.038330,880.496887 30.335175,880.721191 
	C29.290636,882.294678 28.246099,883.868164 27.038671,885.687012 
	C27.830833,886.045044 28.945639,886.549011 30.060444,887.052917 
	C30.053598,887.584778 30.046753,888.116638 30.039907,888.648499 
	C26.650021,888.757446 23.260134,888.866455 19.418159,889.070557 
	C17.655722,888.393982 16.345369,887.622253 15.537348,886.486328 
	C18.232288,886.122253 20.424900,886.122253 23.764383,886.122253 
	C21.886011,884.548645 20.958645,883.771790 20.031258,882.994873 
	C19.990732,882.494934 19.950222,881.994873 19.911346,881.118408 
z"/>
<path fill="#585858" opacity="1.000000" stroke="none" 
	d="
M17.763195,856.270874 
	C21.697094,856.638306 25.389418,857.259155 29.081739,857.880005 
	C28.998863,858.404114 28.915987,858.928223 28.833111,859.452393 
	C27.964939,859.716187 27.096767,859.979980 25.838161,860.362427 
	C27.022976,861.183899 27.920559,861.806274 29.135557,862.648682 
	C27.954935,862.973633 27.081924,863.213928 26.113083,863.801147 
	C25.584459,864.164307 25.151670,864.180542 24.393284,863.747253 
	C23.222946,863.440857 22.378204,863.583923 21.533459,863.727051 
	C18.806345,862.100220 17.325228,859.779419 17.763195,856.270874 
z"/>
<path fill="#585858" opacity="1.000000" stroke="none" 
	d="
M16.152111,783.664001 
	C19.126303,782.557678 22.087166,781.108643 24.947342,781.285706 
	C26.718296,781.395325 28.336243,783.976013 30.022858,785.447510 
	C28.223803,786.987122 26.638311,789.092163 24.554966,789.879028 
	C23.019035,790.459045 20.833029,789.317810 18.556694,788.818604 
	C17.483229,787.131836 16.789743,785.569946 16.152111,783.664001 
M27.021919,786.753845 
	C26.741655,785.775513 26.504768,783.969299 26.174154,783.951965 
	C23.847214,783.830078 21.500980,784.076294 19.160908,784.205017 
	C19.164145,785.101501 19.167381,785.997986 19.170618,786.894531 
	C21.573357,786.967834 23.976095,787.041199 27.021919,786.753845 
z"/>
<path fill="#585858" opacity="1.000000" stroke="none" 
	d="
M16.130800,827.635010 
	C19.488325,826.507507 22.770187,825.433105 26.122147,825.127441 
	C27.237698,825.025696 29.174015,826.682556 29.584019,827.917542 
	C30.097034,829.462891 29.423325,831.402161 29.261889,833.171387 
	C28.826880,833.113159 28.391872,833.054993 27.956863,832.996826 
	C27.609999,831.179016 27.263136,829.361206 26.653688,826.167297 
	C24.868517,828.620056 23.999599,829.813904 22.879126,831.353394 
	C22.178783,830.112854 21.602209,829.091553 20.696409,827.487061 
	C19.640970,829.605042 18.851818,831.188660 17.693556,832.652893 
	C16.910456,831.018372 16.496468,829.503174 16.130800,827.635010 
z"/>
<path fill="#585858" opacity="1.000000" stroke="none" 
	d="
M17.149181,848.433105 
	C20.540852,847.392090 23.883682,846.121460 27.159504,846.275635 
	C30.252581,846.421021 30.764542,850.918701 28.276402,853.898010 
	C27.702188,852.179443 27.123425,850.462524 26.544640,848.745605 
	C25.332287,849.772095 24.119953,850.798584 22.685749,852.012939 
	C22.175962,851.099060 21.603174,850.072266 20.692949,848.440552 
	C19.619719,850.613953 18.835674,852.201721 17.679321,853.672485 
	C17.228367,851.978882 17.149719,850.402344 17.149181,848.433105 
z"/>
<path fill="#585858" opacity="1.000000" stroke="none" 
	d="
M20.103481,902.642578 
	C20.526865,901.929443 20.886711,901.329285 21.250345,901.326965 
	C23.777803,901.310974 26.453753,900.988342 28.736595,901.771423 
	C29.355179,901.983582 29.617559,906.329041 28.589018,907.604126 
	C26.451307,910.254089 23.443850,909.970032 20.685022,907.147583 
	C20.284746,905.628906 20.163221,904.330627 20.103481,902.642578 
M23.306410,902.738159 
	C21.296396,904.614258 22.067022,906.150574 24.263884,906.622803 
	C25.258139,906.836548 26.583021,905.512146 27.757883,904.885559 
	C26.487745,904.054749 25.217606,903.223938 23.306410,902.738159 
z"/>
<path fill="#585858" opacity="1.000000" stroke="none" 
	d="
M16.977516,760.454224 
	C22.017155,760.840698 26.159962,763.238953 30.305941,765.631226 
	C30.043730,766.196655 29.781519,766.762146 29.519310,767.327637 
	C26.315569,765.913696 23.111828,764.499817 19.901417,763.082947 
	C19.221912,765.141785 18.614277,766.982910 17.630287,768.872925 
	C17.137638,766.246887 17.021343,763.571960 16.977516,760.454224 
z"/>
<path fill="#585858" opacity="1.000000" stroke="none" 
	d="
M17.091148,912.358521 
	C19.471703,912.080078 21.557041,909.206238 24.285694,911.834106 
	C24.957561,912.481262 27.621120,911.060425 30.134029,910.384521 
	C29.621933,911.748657 29.291132,913.857605 28.731882,913.920044 
	C25.122511,914.322937 21.487095,916.933044 17.470760,914.075500 
	C17.094641,913.545898 17.066202,913.112854 17.091148,912.358521 
z"/>
<path fill="#585858" opacity="1.000000" stroke="none" 
	d="
M19.977562,891.419922 
	C20.630630,891.146606 21.472143,891.084961 21.796764,891.464905 
	C22.954479,892.819763 23.936472,894.324768 24.984974,895.772949 
	C26.297415,894.364014 27.609844,892.955078 29.952169,890.440491 
	C29.539928,892.968933 29.784920,895.062683 28.876003,896.326660 
	C26.671293,899.392700 23.682476,898.205383 20.497219,896.871582 
	C20.043470,895.161255 19.986198,893.497742 19.977562,891.419922 
z"/>
<path fill="#E2E2E2" opacity="1.000000" stroke="none" 
	d="
M19.634281,883.001160 
	C20.958645,883.771790 21.886011,884.548645 23.764383,886.122253 
	C20.424900,886.122253 18.232288,886.122253 15.625320,886.099915 
	C14.366692,883.291687 14.528075,883.168640 19.634281,883.001160 
z"/>
<path fill="#E2E2E2" opacity="1.000000" stroke="none" 
	d="
M21.957531,863.797485 
	C22.378204,863.583923 23.222946,863.440857 24.082462,863.624634 
	C23.525356,863.923584 22.953476,863.895691 21.957531,863.797485 
z"/>
<path fill="#970499" opacity="1.000000" stroke="none" 
	d="
M454.003662,634.004883 
	C454.335144,636.104004 454.629456,638.209778 455.005890,640.300781 
	C455.749481,644.430786 452.994263,646.544434 449.961731,647.730713 
	C446.042603,649.263855 443.429169,646.542358 441.371674,643.585815 
	C439.189209,640.449768 439.519440,637.225281 442.091614,634.549194 
	C444.390778,632.157227 447.190765,630.916443 450.511292,632.976074 
	C451.314301,633.474182 452.312622,633.657410 453.610565,633.992676 
	C454.000000,634.000000 454.003662,634.004883 454.003662,634.004883 
z"/>
<path fill="#970499" opacity="1.000000" stroke="none" 
	d="
M432.633118,484.961975 
	C434.311737,488.590851 436.622589,491.994965 433.586823,495.971985 
	C429.904968,500.795380 425.890381,498.727051 421.390625,497.005737 
	C420.949097,496.342621 421.036530,495.636353 420.821869,495.038544 
	C419.571716,491.556732 419.296356,488.152710 422.327179,485.479187 
	C425.389313,482.777954 428.820618,482.741791 432.633118,484.961975 
z"/>
<path fill="#970499" opacity="1.000000" stroke="none" 
	d="
M453.997253,633.997925 
	C451.235931,629.601318 451.267090,624.865173 454.329926,622.338074 
	C455.152588,621.659241 456.627441,621.770874 457.802917,621.519653 
	C457.751434,622.627747 457.758881,623.742493 457.635895,624.842651 
	C457.403137,626.924927 457.095581,628.998779 456.819153,631.076172 
	C458.784576,630.992981 460.750214,630.915283 462.715271,630.824768 
	C464.183380,630.757080 465.650696,630.673035 467.943939,630.553040 
	C461.373505,636.971863 459.792145,637.353943 454.336914,634.174377 
	C454.003662,634.004883 454.000000,634.000000 453.997253,633.997925 
z"/>
<path fill="#46555A" opacity="1.000000" stroke="none" 
	d="
M615.869812,482.584534 
	C610.815918,487.682953 606.520874,487.769012 602.842896,483.325073 
	C600.441467,480.423462 600.439087,477.029846 602.522949,474.686829 
	C604.150452,472.856964 607.408569,472.429565 609.995544,471.533417 
	C610.663086,471.302124 611.532043,471.652222 612.285828,471.732788 
	C614.584717,461.312683 615.468994,460.068542 619.803040,461.539429 
	C619.064392,462.651611 617.862671,463.662720 617.794983,464.744781 
	C617.685669,466.492188 617.799927,468.755005 618.825317,469.898651 
	C619.528442,470.682922 621.947571,470.030762 623.580017,469.846710 
	C624.832886,469.705475 626.055115,469.292664 627.291016,469.000641 
	C626.671936,470.340393 626.393188,472.390381 625.367615,472.881744 
	C622.693970,474.162811 619.692993,474.760834 616.643127,475.685699 
	C616.513977,477.337494 616.319885,479.818634 615.869812,482.584534 
z"/>
<path fill="#46555A" opacity="1.000000" stroke="none" 
	d="
M533.033813,550.015747 
	C536.500183,551.582092 539.623657,552.994568 542.747192,554.407043 
	C542.816162,554.928406 542.885132,555.449829 542.954102,555.971252 
	C541.417664,556.398438 539.846680,557.283203 538.351013,557.170410 
	C533.043030,556.769958 531.293030,558.628967 532.298889,563.808533 
	C532.466187,564.670166 531.736145,565.705994 531.420776,566.661377 
	C530.589600,566.156799 529.402771,565.852905 528.986084,565.114380 
	C526.641235,560.958679 524.303467,556.777527 522.371033,552.424011 
	C521.813477,551.167969 522.042114,548.603333 522.916931,547.911682 
	C524.032654,547.029541 526.258484,547.044067 527.842773,547.399170 
	C529.556702,547.783386 531.082886,549.005310 533.033813,550.015747 
z"/>
<path fill="#46555A" opacity="1.000000" stroke="none" 
	d="
M628.817139,467.214722 
	C624.903320,463.374695 621.153687,459.854156 617.716003,456.051514 
	C616.887939,455.135529 617.093750,453.284943 616.824036,451.864166 
	C618.054077,452.247772 619.465759,452.371613 620.471985,453.075256 
	C622.021179,454.158569 623.292175,455.639587 625.061829,457.311462 
	C625.900330,454.478333 626.527161,452.360474 627.153931,450.242645 
	C627.562622,450.261230 627.971313,450.279816 628.380066,450.298431 
	C629.136719,452.367615 629.893372,454.436829 630.637207,456.470947 
	C633.328125,457.157349 635.965271,457.830017 638.724670,458.533905 
	C637.223022,463.841827 633.251831,460.914093 630.434265,461.364105 
	C632.257202,466.353424 632.257202,466.353424 628.817139,467.214722 
z"/>
<path fill="#E2E2E2" opacity="1.000000" stroke="none" 
	d="
M24.298058,955.363098 
	C25.704597,956.067566 26.760744,956.855835 27.816891,957.644043 
	C27.197399,958.340820 26.593908,959.594116 25.954906,959.612549 
	C24.810417,959.645447 23.644548,958.934937 22.487617,958.535156 
	C22.974304,957.505737 23.460985,956.476318 24.298058,955.363098 
z"/>
<path fill="#FEFEFE" opacity="1.000000" stroke="none" 
	d="
M28.572233,951.978638 
	C27.633036,952.568542 26.659271,952.634155 25.685509,952.699707 
	C25.638788,952.284546 25.592068,951.869385 25.545345,951.454224 
	C26.542788,951.454224 27.540228,951.454224 28.572233,951.978638 
z"/>
<path fill="#E2E2E2" opacity="1.000000" stroke="none" 
	d="
M26.700378,786.934204 
	C23.976095,787.041199 21.573357,786.967834 19.170618,786.894531 
	C19.167381,785.997986 19.164145,785.101501 19.160908,784.205017 
	C21.500980,784.076294 23.847214,783.830078 26.174154,783.951965 
	C26.504768,783.969299 26.741655,785.775513 26.700378,786.934204 
z"/>
<path fill="#E2E2E2" opacity="1.000000" stroke="none" 
	d="
M23.626938,902.565674 
	C25.217606,903.223938 26.487745,904.054749 27.757891,904.885559 
	C26.583021,905.512146 25.258139,906.836548 24.263884,906.622803 
	C22.067022,906.150574 21.296396,904.614258 23.626938,902.565674 
z"/>
</svg>